<svg width="30" height="30" viewBox="0 0 30 30" fill="none" xmlns="http://www.w3.org/2000/svg">
<g clip-path="url(#clip0_8_151)">
<path fill-rule="evenodd" clip-rule="evenodd" d="M19.8204 24.6806C18.3648 27.1067 16.6046 28.2 15 28.2C13.3954 28.2 11.6352 27.1067 10.1795 24.6806C8.74538 22.2903 7.8 18.872 7.8 15C7.8 11.128 8.74538 7.70973 10.1795 5.3195C11.6352 2.89343 13.3954 1.8 15 1.8C16.6046 1.8 18.3648 2.89343 19.8204 5.3195C21.2546 7.70973 22.2 11.128 22.2 15C22.2 18.872 21.2546 22.2903 19.8204 24.6806ZM30 15C30 6.71573 23.2842 0 15 0C6.71573 0 0 6.71573 0 15C0 23.2842 6.71573 30 15 30C23.2842 30 30 23.2842 30 15ZM1.8 15C1.8 20.3895 5.02989 25.0245 9.6596 27.075C7.43973 24.3434 6 19.952 6 15C6 10.0481 7.43973 5.65662 9.6596 2.92493C5.02989 4.97552 1.8 9.61056 1.8 15ZM28.2 15C28.2 20.3895 24.9701 25.0245 20.3405 27.075C22.5603 24.3434 24 19.952 24 15C24 10.0481 22.5603 5.65662 20.3405 2.92493C24.9701 4.97552 28.2 9.61056 28.2 15ZM15 16.65C15.9113 16.65 16.65 15.9113 16.65 15C16.65 14.0887 15.9113 13.35 15 13.35C14.0887 13.35 13.35 14.0887 13.35 15C13.35 15.9113 14.0887 16.65 15 16.65Z" fill="black"/>
</g>
<defs>
<clipPath id="clip0_8_151">
<rect width="30" height="30" fill="white"/>
</clipPath>
</defs>
</svg>
