<svg width="342" height="371" viewBox="0 0 342 371" fill="none" xmlns="http://www.w3.org/2000/svg">
<rect x="342" y="371" width="342" height="371" rx="47" transform="rotate(-180 342 371)" fill="white" fill-opacity="0.6"/>
<rect x="36.5" y="343.5" width="315" height="109" rx="24.5" transform="rotate(-90 36.5 343.5)" fill="#DADDB1" stroke="white"/>
<rect x="158" y="158" width="150" height="186" rx="25" fill="#B3A492"/>
<rect x="158" y="28" width="150" height="118" rx="25" fill="#BFB29E"/>
<path d="M44.62 186H43.18L44.44 182.76H41.4V181.48H44.94L46.52 177.3H43.12V176.02H47.04L48.34 172.6H49.76L48.46 176.02H52.74L54.04 172.6H55.46L54.16 176.02H57.28V177.3H53.64L52.06 181.48H55.56V182.76H51.56L50.32 186H48.88L50.12 182.76H45.86L44.62 186ZM47.92 177.28L46.3 181.5H50.68L52.28 177.28H47.92ZM64.7397 186H58.9197V172.6H64.7397C68.7597 172.6 71.3197 175.2 71.3197 179.3C71.3197 183.4 68.7597 186 64.7397 186ZM64.7397 173.9H60.3597V184.7H64.7397C68.1397 184.7 69.8197 182.94 69.8197 179.3C69.8197 175.66 68.1397 173.9 64.7397 173.9ZM73.6756 186H72.1156L78.1756 172.6H80.1556L86.2356 186H84.6356L82.8356 182.06H75.4756L73.6756 186ZM78.3556 175.7L76.0556 180.78H82.2556L79.9356 175.7L79.1956 173.96H79.0756L78.3556 175.7ZM93.392 186H87.572V172.6H93.392C97.412 172.6 99.972 175.2 99.972 179.3C99.972 183.4 97.412 186 93.392 186ZM93.392 173.9H89.012V184.7H93.392C96.792 184.7 98.472 182.94 98.472 179.3C98.472 175.66 96.792 173.9 93.392 173.9ZM107.728 186H101.908V172.6H107.728C111.748 172.6 114.308 175.2 114.308 179.3C114.308 183.4 111.748 186 107.728 186ZM107.728 173.9H103.348V184.7H107.728C111.128 184.7 112.808 182.94 112.808 179.3C112.808 175.66 111.128 173.9 107.728 173.9ZM123.284 186H116.044V172.6H123.084C125.484 172.6 127.064 173.8 127.064 175.92C127.064 177.46 126.204 178.62 124.364 178.9V179.02C126.424 179.36 127.484 180.58 127.484 182.3C127.484 184.62 125.844 186 123.284 186ZM117.464 173.9V178.44H122.844C124.664 178.44 125.644 177.72 125.644 176.18C125.644 174.62 124.784 173.9 122.964 173.9H117.464ZM117.464 179.66V184.7H123.164C125.064 184.7 126.044 183.92 126.044 182.16C126.044 180.44 125.024 179.66 123.164 179.66H117.464ZM132.772 186H131.352V175.34H128.192V174.26H128.892C130.372 174.26 131.092 173.86 131.612 172.6H132.772V186Z" fill="black"/>
<path d="M188.62 255H187.18L188.44 251.76H185.4V250.48H188.94L190.52 246.3H187.12V245.02H191.04L192.34 241.6H193.76L192.46 245.02H196.74L198.04 241.6H199.46L198.16 245.02H201.28V246.3H197.64L196.06 250.48H199.56V251.76H195.56L194.32 255H192.88L194.12 251.76H189.86L188.62 255ZM191.92 246.28L190.3 250.5H194.68L196.28 246.28H191.92ZM209.96 255H202.72V241.6H209.76C212.16 241.6 213.74 242.8 213.74 244.92C213.74 246.46 212.88 247.62 211.04 247.9V248.02C213.1 248.36 214.16 249.58 214.16 251.3C214.16 253.62 212.52 255 209.96 255ZM204.14 242.9V247.44H209.52C211.34 247.44 212.32 246.72 212.32 245.18C212.32 243.62 211.46 242.9 209.64 242.9H204.14ZM204.14 248.66V253.7H209.84C211.74 253.7 212.72 252.92 212.72 251.16C212.72 249.44 211.7 248.66 209.84 248.66H204.14ZM221.128 255.2C217.088 255.2 215.368 253.26 215.368 250.74V250.42H216.848V250.68C216.848 252.78 217.868 253.84 221.088 253.84C224.088 253.84 225.288 253.02 225.288 251.12C225.288 249.42 224.108 248.62 222.068 248.62H218.448V247.4H221.768C223.788 247.4 224.888 246.66 224.888 245.14C224.888 243.54 223.908 242.76 221.028 242.76C217.968 242.76 216.848 243.82 216.848 245.92V246.1H215.368V245.86C215.368 243.38 217.148 241.4 221.128 241.4C224.408 241.4 226.308 242.7 226.308 244.92C226.308 246.42 225.428 247.54 223.748 247.84V247.98C225.648 248.34 226.728 249.5 226.728 251.28C226.728 253.78 224.588 255.2 221.128 255.2ZM229.023 255H227.463L233.523 241.6H235.503L241.583 255H239.983L238.183 251.06H230.823L229.023 255ZM233.703 244.7L231.403 249.78H237.603L235.283 244.7L234.543 242.96H234.423L233.703 244.7ZM252.2 255H250.76V252.16H242.18V251.12L250.52 241.6H252.2V250.86H254.7V252.16H252.2V255ZM244.14 250.86H250.76V243.32H250.66L244.14 250.74V250.86ZM261.735 255.2C258.675 255.2 256.435 253.62 256.435 250.92V250.78H257.975V250.92C257.975 252.58 258.955 253.84 261.735 253.84C265.095 253.84 266.335 251.98 266.335 248.34V247.12H266.195C265.715 248.7 263.895 249.9 261.235 249.9C257.955 249.9 256.035 248.28 256.035 245.7C256.035 243.08 258.075 241.4 261.655 241.4C265.955 241.4 267.815 243.38 267.815 248.28C267.815 252.36 265.875 255.2 261.735 255.2ZM261.675 248.82C264.395 248.82 266.055 247.68 266.055 245.76C266.055 243.8 264.495 242.76 261.715 242.76C258.815 242.76 257.495 243.76 257.495 245.8C257.495 247.78 258.775 248.82 261.675 248.82ZM280.172 255H269.552V254.02C269.552 251.44 270.492 250.18 273.192 249.2L276.192 248.14C278.132 247.42 278.772 246.76 278.772 245.34C278.772 243.58 277.552 242.74 275.012 242.74C272.112 242.74 270.912 243.86 270.912 245.86V246.1H269.492V245.92C269.492 243.54 271.132 241.4 275.052 241.4C278.652 241.4 280.212 243.18 280.212 245.34C280.212 247.4 278.932 248.56 276.572 249.36L273.832 250.28C271.632 251.06 271.012 251.94 271.012 253.82L274.012 253.7H280.172V255Z" fill="black"/>
<path d="M188.62 92H187.18L188.44 88.76H185.4V87.48H188.94L190.52 83.3H187.12V82.02H191.04L192.34 78.6H193.76L192.46 82.02H196.74L198.04 78.6H199.46L198.16 82.02H201.28V83.3H197.64L196.06 87.48H199.56V88.76H195.56L194.32 92H192.88L194.12 88.76H189.86L188.62 92ZM191.92 83.28L190.3 87.5H194.68L196.28 83.28H191.92ZM209.96 92H202.72V78.6H209.76C212.16 78.6 213.74 79.8 213.74 81.92C213.74 83.46 212.88 84.62 211.04 84.9V85.02C213.1 85.36 214.16 86.58 214.16 88.3C214.16 90.62 212.52 92 209.96 92ZM204.14 79.9V84.44H209.52C211.34 84.44 212.32 83.72 212.32 82.18C212.32 80.62 211.46 79.9 209.64 79.9H204.14ZM204.14 85.66V90.7H209.84C211.74 90.7 212.72 89.92 212.72 88.16C212.72 86.44 211.7 85.66 209.84 85.66H204.14ZM217.288 92H215.868V78.6H225.908V79.9H217.288V85.02H225.608V86.3H217.288V92ZM234.882 92H227.642V78.6H234.682C237.082 78.6 238.662 79.8 238.662 81.92C238.662 83.46 237.802 84.62 235.962 84.9V85.02C238.022 85.36 239.082 86.58 239.082 88.3C239.082 90.62 237.442 92 234.882 92ZM229.062 79.9V84.44H234.442C236.262 84.44 237.242 83.72 237.242 82.18C237.242 80.62 236.382 79.9 234.562 79.9H229.062ZM229.062 85.66V90.7H234.762C236.662 90.7 237.642 89.92 237.642 88.16C237.642 86.44 236.622 85.66 234.762 85.66H229.062ZM251.09 92H240.47V91.02C240.47 88.44 241.41 87.18 244.11 86.2L247.11 85.14C249.05 84.42 249.69 83.76 249.69 82.34C249.69 80.58 248.47 79.74 245.93 79.74C243.03 79.74 241.83 80.86 241.83 82.86V83.1H240.41V82.92C240.41 80.54 242.05 78.4 245.97 78.4C249.57 78.4 251.13 80.18 251.13 82.34C251.13 84.4 249.85 85.56 247.49 86.36L244.75 87.28C242.55 88.06 241.93 88.94 241.93 90.82L244.93 90.7H251.09V92ZM258.376 92.2C255.316 92.2 253.076 90.62 253.076 87.92V87.78H254.616V87.92C254.616 89.58 255.596 90.84 258.376 90.84C261.736 90.84 262.976 88.98 262.976 85.34V84.12H262.836C262.356 85.7 260.536 86.9 257.876 86.9C254.596 86.9 252.676 85.28 252.676 82.7C252.676 80.08 254.716 78.4 258.296 78.4C262.596 78.4 264.456 80.38 264.456 85.28C264.456 89.36 262.516 92.2 258.376 92.2ZM258.316 85.82C261.036 85.82 262.696 84.68 262.696 82.76C262.696 80.8 261.136 79.76 258.356 79.76C255.456 79.76 254.136 80.76 254.136 82.8C254.136 84.78 255.416 85.82 258.316 85.82ZM276.693 92H266.513V78.6H276.693V79.9H267.933V84.62H276.393V85.9H267.933V90.7H276.693V92Z" fill="black"/>
</svg>
